<?xml version="1.0" encoding="UTF-8"?>
<svg xmlns="http://www.w3.org/2000/svg" width="737.8000046014786" height="250.39999389648438" viewBox="307.1062148809433 390.0866184234619 737.8000046014786 250.39999389648438" preserveAspectRatio="none">
  <g>
    <defs>
      <path id="s-Polygon_1-d1224" d="M599.0061950683594 422.48663330078125 L569.606201171875 422.48663330078125 L525.8062133789062 477.6866455078125 L525.8062133789062 422.48663330078125 L500.2062072753906 422.48663330078125 L500.2062072753906 546.6866455078125 L525.8062133789062 546.6866455078125 L525.8062133789062 488.28662109375 L579.4062194824219 546.3866577148438 L579.7062072753906 546.6866455078125 L612.7062072753906 546.6866455078125 L552.8062133789062 480.98663330078125 Z "></path>
    </defs>
    <g style="mix-blend-mode:normal">
      <use xmlns:xlink="http://www.w3.org/1999/xlink" xlink:href="#s-Polygon_1-d1224" fill="#17293D" fill-opacity="1.0"></use>
    </g>
  </g>
  <g>
    <defs>
      <path id="s-Path_10-d1224" d="M647.4062194824219 461.38665771484375 C635.0062198638916 461.38665771484375 624.9062194824219 465.4866576194763 617.2062187194824 473.4866580963135 C609.5062189102173 481.4866580963135 605.6062183380127 491.9866580963135 605.6062183380127 504.5866584777832 C605.6062183380127 517.6866588592529 609.8062181472778 528.3866577148438 618.2062187194824 536.2866592407227 C626.5062189102173 544.1866593360901 637.4062194824219 548.1866588592529 650.506217956543 548.1866588592529 C664.3062181472778 548.1866588592529 676.2062187194824 544.6866588592529 685.9062194824219 537.8866586685181 L686.3062194883823 537.5866586565971 L686.3062194883823 519.0866586565971 L684.7062194645405 520.186658680439 C679.7062194645405 523.686658680439 674.8062198460102 526.3866584897041 670.2062194645405 528.186658680439 C665.6062195599079 529.8866587281227 660.7062194645405 530.7866585850716 655.7062194645405 530.7866585850716 C648.0062196552753 530.7866585850716 641.9062192738056 528.8866586089134 637.506218701601 525.0866587758064 C633.4062187969685 521.5866587758064 630.8062188923359 516.4866583943367 629.8062188923359 509.9866583943367 L687.5062196552753 509.9866583943367 L687.5062196552753 505.78665858507156 C687.5062196552753 491.9866583943367 683.9062197506428 480.986659348011 676.7062194645405 473.18666011095047 C669.5061950683594 465.38665771484375 659.7062072753906 461.38665771484375 647.4062194824219 461.38665771484375 Z M630.1062316894531 495.086669921875 C631.0062316656113 489.68666982650757 633.0062317848206 485.4866695404053 635.906231880188 482.586669921875 C639.0062317848206 479.586669921875 643.2062320709229 478.086669921875 648.3062314987183 478.086669921875 C653.3062314987183 478.086669921875 657.2062311172485 479.68666994571686 660.1062316894531 482.78666973114014 C662.8062317371368 485.78666973114014 664.5062317848206 489.8866696357727 665.1062316894531 495.086669921875 L630.1062316894531 495.086669921875 Z "></path>
    </defs>
    <g style="mix-blend-mode:normal">
      <use xmlns:xlink="http://www.w3.org/1999/xlink" xlink:href="#s-Path_10-d1224" fill="#17293D" fill-opacity="1.0"></use>
    </g>
  </g>
  <g>
    <defs>
      <path id="s-Polygon_2-d1224" d="M748.4062194824219 462.98663330078125 L729.4062194824219 505.38665771484375 L710.7062072753906 462.98663330078125 L685.2062072753906 462.98663330078125 L717.5061950683594 530.6866455078125 L691.0061950683594 587.8866577148438 L716.3061828613281 587.8866577148438 L773.7062072753906 462.98663330078125 Z "></path>
    </defs>
    <g style="mix-blend-mode:normal">
      <use xmlns:xlink="http://www.w3.org/1999/xlink" xlink:href="#s-Polygon_2-d1224" fill="#17293D" fill-opacity="1.0"></use>
    </g>
  </g>
  <g>
    <defs>
      <path id="s-Path_11-d1224" d="M808.0061950683594 493.48663330078125 L808.0061950683594 493.48663330078125 C801.606194972992 490.28663325309753 797.6061954498291 488.0866332054138 796.2061948776245 486.8866333961487 C795.0061948299408 485.8866333961487 794.4061949253082 484.8866333961487 794.4061949253082 483.98663330078125 C794.4061949253082 482.18663334846497 795.1061949133873 480.78663325309753 796.606194972992 479.7866334915161 C798.2061949968338 478.7866334915161 800.4061949253082 478.18663346767426 803.3061947822571 478.18663346767426 C806.8061947822571 478.18663346767426 810.9061946868896 478.9866334795952 815.5061945915222 480.5866335630417 C820.1061944961548 482.18663358688354 824.4061942100525 484.2866336107254 828.4061942100525 486.7866333723068 L829.9061942100525 487.7866333723068 L829.9061942100525 468.08663260936737 L829.3061941862106 467.78663259744644 C824.8061941862106 465.5866325497627 820.5061939954758 463.886632502079 816.5061939954758 462.886632502079 C812.5061939954758 461.886632502079 808.1061943769455 461.28663247823715 803.6061943769455 461.28663247823715 C794.2061947584152 461.28663247823715 786.5061939954758 463.48663252592087 780.7061947584152 467.9866322875023 C774.8061946630478 472.4866322875023 771.806195139885 478.586632668972 771.806195139885 486.086632668972 C771.806195139885 491.3866328597069 773.5061951875687 495.9866322875023 776.806195139885 499.8866328597069 C780.0061951875687 503.68663281202316 785.1061953306198 507.18663305044174 791.7061947584152 510.3866328597069 C800.2061947584152 514.586632668972 805.306195139885 517.1866330504417 806.9061945676804 518.2866329550743 C808.4061945676804 519.2866329550743 809.6061946153641 520.3866328597069 810.3061946630478 521.2866329550743 C811.0061946511269 522.1866329312325 811.3061946630478 523.0866329073906 811.3061946630478 524.1866330504417 C811.3061946630478 525.986633002758 810.3061946630478 527.3866330981255 808.4061945676804 528.4866332411766 C806.3061946630478 529.6866332888603 803.5061944723129 530.2866331934929 800.0061949491501 530.2866331934929 C793.0061949491501 530.2866331934929 784.306195139885 527.3866330981255 774.0061949491501 521.6866328120232 L772.5061949491501 520.8866328001022 L772.5061949491501 541.0866335630417 L773.0061949491501 541.3866335749626 C776.4061950445175 543.1866335272789 780.7061947584152 544.78663367033 785.806195139885 546.0866333842278 C790.9061950445175 547.386633336544 796.5061949491501 548.0866333842278 802.4061955213547 548.0866333842278 C811.9061955213547 548.0866333842278 819.6061962842941 545.6866332888603 825.306195139885 541.0866333842278 C831.0061949491501 536.3866335749626 833.9061955213547 529.8866335749626 833.9061955213547 521.6866337656975 C833.9061955213547 515.8866335749626 831.9061955213547 510.7866341471672 828.0061954259872 506.58663338422775 C824.1062316894531 502.78662109375 817.4062194824219 498.28662109375 808.0061950683594 493.48663330078125 Z "></path>
    </defs>
    <g style="mix-blend-mode:normal">
      <use xmlns:xlink="http://www.w3.org/1999/xlink" xlink:href="#s-Path_11-d1224" fill="#17293D" fill-opacity="1.0"></use>
    </g>
  </g>
  <g>
    <defs>
      <path id="s-Path_12-d1224" d="M880.1062316894531 461.38665771484375 C867.7062320709229 461.38665771484375 857.6062316894531 465.4866576194763 849.9062309265137 473.4866580963135 C842.2062311172485 481.4866580963135 838.306230545044 491.9866580963135 838.306230545044 504.5866584777832 C838.306230545044 517.6866588592529 842.5062303543091 528.3866577148438 850.9062309265137 536.2866592407227 C859.2062311172485 544.1866593360901 870.1062316894531 548.1866588592529 883.2062301635742 548.1866588592529 C897.0062303543091 548.1866588592529 908.9062309265137 544.6866588592529 918.6062316894531 537.8866586685181 L919.0062316954136 537.5866586565971 L919.0062316954136 519.0866586565971 L917.4062316715717 520.186658680439 C912.4062316715717 523.686658680439 907.5062320530415 526.3866584897041 902.9062316715717 528.186658680439 C898.3062317669392 529.8866587281227 893.4062316715717 530.7866585850716 888.4062316715717 530.7866585850716 C880.7062318623066 530.7866585850716 874.6062314808369 528.8866586089134 870.2062309086323 525.0866587758064 C866.1062310039997 521.5866587758064 863.5062310993671 516.4866583943367 862.5062310993671 509.9866583943367 L920.2062318623066 509.9866583943367 L920.2062318623066 505.78665858507156 C920.2062318623066 491.9866583943367 916.606231957674 480.986659348011 909.4062316715717 473.18666011095047 C902.2062072753906 465.38665771484375 892.4062194824219 461.38665771484375 880.1062316894531 461.38665771484375 Z M862.8061828613281 495.086669921875 C863.7061828374863 489.68666982650757 865.7061829566956 485.4866695404053 868.606183052063 482.586669921875 C871.7061829566956 479.586669921875 875.9061832427979 478.086669921875 881.0061826705933 478.086669921875 C886.0061826705933 478.086669921875 889.9061822891235 479.68666994571686 892.8061828613281 482.78666973114014 C895.5061829090118 485.78666973114014 897.2061829566956 489.8866696357727 897.8061828613281 495.086669921875 L862.8061828613281 495.086669921875 Z "></path>
    </defs>
    <g style="mix-blend-mode:normal">
      <use xmlns:xlink="http://www.w3.org/1999/xlink" xlink:href="#s-Path_12-d1224" fill="#17293D" fill-opacity="1.0"></use>
    </g>
  </g>
  <g>
    <defs>
      <path id="s-Rect_1-d1224" d="M929.8061828613281 422.48663330078125 L953.3061828613281 422.48663330078125 L953.3061828613281 546.6866302490234 L929.8061828613281 546.6866302490234 Z "></path>
    </defs>
    <g style="mix-blend-mode:normal">
      <use xmlns:xlink="http://www.w3.org/1999/xlink" xlink:href="#s-Rect_1-d1224" fill="#17293D" fill-opacity="1.0"></use>
    </g>
  </g>
  <g>
    <defs>
      <path id="s-Polygon_3-d1224" d="M1019.6062316894531 462.98663330078125 L1000.7062072753906 505.38665771484375 L982.0061950683594 462.98663330078125 L956.5061950683594 462.98663330078125 L988.7062072753906 530.6866455078125 L962.3061828613281 587.8866577148438 L987.6062316894531 587.8866577148438 L1044.9062194824219 462.98663330078125 Z "></path>
    </defs>
    <g style="mix-blend-mode:normal">
      <use xmlns:xlink="http://www.w3.org/1999/xlink" xlink:href="#s-Polygon_3-d1224" fill="#17293D" fill-opacity="1.0"></use>
    </g>
  </g>
  <g>
    <defs>
      <path id="s-Path_13-d1224" d="M441.30621337890625 536.28662109375 L404.6062126159668 497.8866195678711 L379.40621185302734 471.4866199493408 L457.20621490478516 392.5866184234619 L402.9062156677246 392.5866184234619 L344.10621643066406 450.9866199493408 L344.10621643066406 392.5866184234619 L310.20621490478516 392.5866184234619 L310.20621490478516 556.4866123199463 C309.8062148988247 559.5866122245789 309.6062148809433 562.7866125106812 309.6062148809433 565.9866123199463 C309.6062148809433 569.1866121292114 309.80621488392353 572.3866124153137 310.20621490478516 575.4866123199463 C310.70621490478516 579.3866124153137 311.6062148809433 583.2866125106812 312.70621490478516 586.9866123199463 C321.70621490478516 616.4866123199463 349.10621643066406 637.9866123199463 381.50621795654297 637.9866123199463 C417.60621643066406 637.9866123199463 447.4062194824219 611.3866119384766 452.60621643066406 576.7866115570068 C453.10621643066406 573.2866115570068 453.406216442585 569.6866116523743 453.406216442585 566.0866117477417 C453.406216442585 565.9866117462516 453.406216442585 565.9866117462516 453.406216442585 565.8866117447615 C453.30621337890625 554.78662109375 448.9062194824219 544.1866455078125 441.30621337890625 536.28662109375 Z M382.9062194824219 602.8866577148438 C376.4062194824219 603.1866577267647 370.20621967315674 601.7866576910019 364.7062187194824 599.0866577625275 C352.2062187194824 592.8866579532623 344.7062187194824 579.886656999588 344.7062187194824 565.9866592884064 L344.7062187194824 559.2866594791412 L344.7062187194824 504.6866455078125 L345.60621869564056 503.6866455078125 L352.506218791008 496.48664569854736 L355.10621869564056 499.08664560317993 L385.00621831417084 529.0866456031799 L407.9062179327011 552.0866456031799 C414.60621774196625 559.8866457939148 416.8062175512314 570.7866463661194 413.5062178373337 580.6866459846497 L413.5062178373337 580.7866459861398 C411.4062179327011 587.0866461768746 407.5062178373337 592.7866459861398 402.0062178373337 596.4866457954049 C396.4062194824219 600.1866455078125 389.9062194824219 602.4866333007812 382.9062194824219 602.8866577148438 Z "></path>
    </defs>
    <g style="mix-blend-mode:normal">
      <use xmlns:xlink="http://www.w3.org/1999/xlink" xlink:href="#s-Path_13-d1224" fill="#17293D" fill-opacity="1.0" stroke-width="5.0" stroke="#17293D" stroke-linecap="butt"></use>
    </g>
  </g>
</svg>
